<svg xmlns="http://www.w3.org/2000/svg" viewBox="0 0 676 508.47"><defs><style>.cls-1{fill:#f9ed27;}</style></defs><g id="Layer_2" data-name="Layer 2"><path class="cls-1" d="M671.19,8.25A34.3,34.3,0,0,1,648.8,0c-.58.47-1.18.94-1.76,1.43a236,236,0,0,1-148.17,52q-9,0-17.79-.65l-.74-.06c-3.59-.29-7.21-.41-10.86-.41a146.06,146.06,0,0,0-96.37,36.18A135.26,135.26,0,0,0,363,98.28a146.68,146.68,0,0,0-24.69,35.33c-.09-.19-.2-.39-.31-.59-.11.2-.22.4-.31.59A143.94,143.94,0,0,0,324,111.35a146.16,146.16,0,0,0-117.47-59c-3.65,0-7.27.12-10.86.41l-.74.06q-8.8.64-17.79.65A236,236,0,0,1,29,1.43C28.38.94,27.78.47,27.2,0A34.3,34.3,0,0,1,4.81,8.25,32,32,0,0,1,0,7.91v313a9.51,9.51,0,0,0,.63,3.38,146.76,146.76,0,0,0,165.53,89.27l1-.24.29-.05a146.75,146.75,0,0,1,144.35,53.09A146,146,0,0,1,324,484.47v24h28v-24a146.31,146.31,0,0,1,127.37-74.11,147.59,147.59,0,0,1,29.16,2.9l.29.05,1,.24c2,.42,4,.78,6.07,1.1a147.73,147.73,0,0,0,23.38,1.85,146,146,0,0,0,42.64-6.32c2.47-.74,4.89-1.55,7.3-2.42a147,147,0,0,0,86-83.15,11,11,0,0,0,.76-4.06V7.91A32,32,0,0,1,671.19,8.25ZM324,430.53a235.39,235.39,0,0,0-101.7-41.63,239.34,239.34,0,0,0-36.44-2.79q-8.88,0-17.57.65a.62.62,0,0,0-.19,0,2.33,2.33,0,0,0-.36,0c-1.39.09-2.77.19-4.16.36a1.06,1.06,0,0,0-.25,0H163c-3.39.24-6.81.37-10.25.37a146.24,146.24,0,0,1-122.33-66,8.92,8.92,0,0,1-1.47-5V39.06A235.35,235.35,0,0,0,129.65,74.12a240.82,240.82,0,0,0,25.61,1.38q8.91,0,17.65-.66c.81-.09,1.63-.14,2.46-.2q5.19-.37,10.48-.38c63.8,0,118.07,43.75,138.14,100.68ZM647,316.14a10.78,10.78,0,0,1-1.76,5.93,146.13,146.13,0,0,1-122,65.51c-3.44,0-6.86-.13-10.25-.37h-.31a1.06,1.06,0,0,0-.25,0c-1.39-.17-2.77-.27-4.16-.36a2.33,2.33,0,0,0-.37,0,.52.52,0,0,0-.18,0q-8.69-.64-17.57-.65a239.34,239.34,0,0,0-36.44,2.79A235.42,235.42,0,0,0,390,408.23q-7.71,3.61-15.1,7.73A239.82,239.82,0,0,0,352,430.53V402.64a146.33,146.33,0,0,1,123.51-67.75A141.79,141.79,0,0,1,493,335.94c2.23.25,4.45.56,6.64.94l.26,0a240,240,0,0,0,29.92,1.87c7.56,0,15.06-.36,22.44-1.07A235.41,235.41,0,0,0,647,307.81Zm0-46A235.74,235.74,0,0,1,517,309a238.31,238.31,0,0,1-34.32-2.48c-.58-.07-1.17-.16-1.77-.25l-.15,0A146.34,146.34,0,0,0,352,351.92V318a146.36,146.36,0,0,1,123.51-67.75A143.78,143.78,0,0,1,493,251.28c2.23.26,4.45.56,6.64.94a1.27,1.27,0,0,1,.26,0,240,240,0,0,0,29.92,1.86c7.56,0,15.06-.36,22.44-1.06A235.72,235.72,0,0,0,647,223.16Zm0-84.65a235.74,235.74,0,0,1-130,38.84,238.31,238.31,0,0,1-34.32-2.48c-.58-.07-1.17-.16-1.77-.25l-.15,0A146.26,146.26,0,0,0,352,267.27V230.83a146.33,146.33,0,0,1,123.51-67.75,143.78,143.78,0,0,1,17.47,1c2.23.25,4.45.56,6.64.94a1.27,1.27,0,0,1,.26,0A240,240,0,0,0,529.81,167c7.56,0,15.06-.36,22.44-1.07A235.41,235.41,0,0,0,647,136Zm0-87.15A235.74,235.74,0,0,1,517,137.2a238.31,238.31,0,0,1-34.32-2.48c-.58-.07-1.17-.16-1.77-.25l-.15,0a143.6,143.6,0,0,0-21.08-1.52A146.16,146.16,0,0,0,352,180.11v-5.17A153.83,153.83,0,0,1,386.83,119a150.77,150.77,0,0,1,13.6-12.42c24.79-20,55.91-32.31,89.72-32.31q5.3,0,10.48.38c.83.06,1.65.11,2.46.2q8.75.66,17.65.66a240.82,240.82,0,0,0,25.61-1.38A235.35,235.35,0,0,0,647,39.06Z"/></g></svg>